# xmcd
# 
# Track frame offsets:
#     150
#     5683
#     26490
#     45309
#     59902
#     86871
#     110587
#     134438
#     146797
#     167876
#     182652
#     202134
#     211237
#     226575
#     243078
# 
# Disc length: 3435
# 
# Revision: 2
# Processed by: cddbd v1.5.2PL0 Copyright (c) Steve Scherf et al.
# Submitted via: fre:ac v1.0.17
# 
DISCID=d70d690f
DTITLE=Trio Chemirani - Invite
DYEAR=2011
DGENRE=Jazz
TTITLE0=Dar bazé
TTITLE1=Alou soroma
TTITLE2=Flamenco mar
TTITLE3=Dordaneh
TTITLE4=Azadeh
TTITLE5=Synkathistos
TTITLE6=Oryssa
TTITLE7=Bad-é-Saba
TTITLE8=Saadi
TTITLE9=La marelle
TTITLE10=Taama
TTITLE11=Atash
TTITLE12=Yar Mara
TTITLE13=Nokay
TTITLE14=Sarv
EXTD=YEAR: 2011
EXTT0=
EXTT1=
EXTT2=
EXTT3=
EXTT4=
EXTT5=
EXTT6=
EXTT7=
EXTT8=
EXTT9=
EXTT10=
EXTT11=
EXTT12=
EXTT13=
EXTT14=
PLAYORDER=
